<?xml version="1.0" standalone="no"?>
<!DOCTYPE svg PUBLIC "-//W3C//DTD SVG 20010904//EN"
 "http://www.w3.org/TR/2001/REC-SVG-20010904/DTD/svg10.dtd">
<svg version="1.0" xmlns="http://www.w3.org/2000/svg"
 width="736.000000pt" height="736.000000pt" viewBox="0 0 736.000000 736.000000"
 preserveAspectRatio="xMidYMid meet">

<g transform="translate(0.000000,736.000000) scale(0.100000,-0.100000)"
fill="none /" stroke="none">
<path d="M0 3680 l0 -3680 3680 0 3680 0 0 3680 0 3680 -3680 0 -3680 0 0
-3680z m3943 927 c15 -12 27 -26 27 -31 0 -4 14 -22 31 -39 18 -17 58 -63 91
-102 54 -64 94 -111 173 -200 17 -19 36 -41 43 -49 9 -12 12 -155 12 -641 l0
-625 -33 -37 c-34 -36 -35 -36 -133 -42 l-99 -6 -3 -159 -3 -160 -73 73 c-41
40 -78 72 -84 70 -6 -2 -46 -38 -89 -79 l-78 -75 -3 168 -2 167 -268 0 c-147
0 -282 4 -300 9 -35 10 -53 25 -70 58 -15 28 -17 1618 -2 1658 6 16 26 33 52
45 40 18 69 20 414 20 l371 0 26 -23z"/>
<path d="M3146 4544 c-14 -14 -16 -101 -16 -807 0 -436 4 -797 8 -803 17 -26
54 -29 311 -26 l271 3 0 37 c0 24 -10 51 -27 77 -54 80 -40 196 35 267 60 59
114 82 176 75 60 -6 120 -33 153 -69 33 -35 63 -114 63 -166 0 -47 -36 -142
-59 -156 -6 -4 -11 -20 -11 -37 l0 -29 89 0 c82 0 91 2 105 22 14 20 16 93 16
595 l0 573 -152 0 c-134 0 -157 2 -185 20 -57 34 -63 59 -63 260 l0 180 -349
0 c-304 0 -352 -2 -365 -16z m574 -214 l0 -30 -225 0 -225 0 0 30 0 30 225 0
225 0 0 -30z m0 -200 l0 -30 -225 0 -225 0 0 30 0 30 225 0 225 0 0 -30z m400
-200 l0 -30 -425 0 -425 0 0 30 0 30 425 0 425 0 0 -30z m0 -200 l0 -30 -425
0 -425 0 0 30 0 30 425 0 425 0 0 -30z m0 -200 l0 -30 -425 0 -425 0 0 30 0
30 425 0 425 0 0 -30z"/>
<path d="M3920 4365 c0 -152 1 -156 25 -180 23 -24 29 -25 155 -25 138 0 149
4 108 44 -13 12 -32 34 -43 48 -41 53 -92 111 -143 164 -29 31 -60 66 -68 80
-9 13 -20 24 -25 24 -5 0 -9 -70 -9 -155z"/>
<path d="M3804 3281 c-96 -59 -107 -185 -23 -267 37 -36 42 -38 106 -38 83 -1
120 18 148 77 59 120 -16 247 -145 247 -36 0 -66 -6 -86 -19z"/>
<path d="M3794 2911 c-2 -2 -4 -55 -4 -118 0 -128 6 -136 59 -78 17 19 37 35
44 35 7 0 28 -16 47 -35 19 -19 38 -35 43 -35 4 0 7 53 7 118 l0 117 -96 0
c-53 0 -98 -2 -100 -4z"/>
</g>
</svg>
