<?xml version="1.0" standalone="no"?>
<!DOCTYPE svg PUBLIC "-//W3C//DTD SVG 20010904//EN"
 "http://www.w3.org/TR/2001/REC-SVG-20010904/DTD/svg10.dtd">
<svg version="1.0" xmlns="http://www.w3.org/2000/svg"
 width="736.000000pt" height="414.000000pt" viewBox="0 0 736.000000 414.000000"
 preserveAspectRatio="xMidYMid meet">

<g transform="translate(0.000000,414.000000) scale(0.100000,-0.100000)"
fill="#000000" stroke="none">
<path d="M0 2070 l0 -2070 3680 0 3680 0 0 2070 0 2070 -3680 0 -3680 0 0
-2070z m6825 1179 c30 -39 72 -84 93 -99 68 -50 123 -107 128 -133 5 -31 -7
-64 -36 -97 -23 -26 -90 -136 -90 -148 -1 -12 -40 -58 -40 -46 0 6 11 38 25
72 14 34 30 85 36 113 10 46 9 54 -17 107 -16 31 -41 76 -56 99 -15 23 -28 44
-28 46 0 3 -18 36 -40 75 -38 66 -45 82 -36 82 3 0 30 -32 61 -71z m-4495
-693 c0 -2 -23 -19 -51 -37 -28 -18 -56 -37 -62 -44 -29 -29 -123 -86 -158
-96 -30 -9 -56 -9 -116 0 -43 7 -266 18 -495 25 -229 6 -420 15 -424 19 -4 4
13 7 37 8 335 4 814 19 849 27 25 6 77 18 115 28 39 9 93 21 120 27 28 5 75
18 105 27 55 19 80 23 80 16z m2579 -1510 c-2 -2 -76 -14 -164 -26 -88 -11
-225 -30 -305 -40 -80 -11 -149 -20 -153 -20 -5 0 -5 -5 -1 -11 14 -23 -82 2
-163 43 -46 23 -81 43 -79 45 2 2 31 -6 65 -17 33 -12 65 -19 71 -15 5 3 10 2
10 -3 0 -17 113 -12 390 17 282 30 336 34 329 27z"/>
</g>
</svg>
